<mxfile host="Electron" agent="Mozilla/5.0 (Windows NT 10.0; Win64; x64) AppleWebKit/537.36 (KHTML, like Gecko) draw.io/24.7.17 Chrome/128.0.6613.36 Electron/32.0.1 Safari/537.36" version="24.7.17">
  <diagram name="Страница — 1" id="E0Ujf7KPfG7QBRA1unFd">
    <mxGraphModel dx="1122" dy="1709" grid="1" gridSize="10" guides="1" tooltips="1" connect="1" arrows="1" fold="1" page="1" pageScale="1" pageWidth="827" pageHeight="1169" math="0" shadow="0">
      <root>
        <mxCell id="0" />
        <mxCell id="1" parent="0" />
        <mxCell id="UmhEkaX1TgE3mS6SYgg9-1" value="начало" style="ellipse;whiteSpace=wrap;html=1;" parent="1" vertex="1">
          <mxGeometry x="200" width="60" height="30" as="geometry" />
        </mxCell>
        <mxCell id="UmhEkaX1TgE3mS6SYgg9-2" value="" style="endArrow=classic;html=1;rounded=0;" parent="1" edge="1">
          <mxGeometry width="50" height="50" relative="1" as="geometry">
            <mxPoint x="229.5" y="30" as="sourcePoint" />
            <mxPoint x="229.5" y="60" as="targetPoint" />
          </mxGeometry>
        </mxCell>
        <mxCell id="UmhEkaX1TgE3mS6SYgg9-3" value="" style="endArrow=none;dashed=1;html=1;rounded=0;" parent="1" edge="1">
          <mxGeometry width="50" height="50" relative="1" as="geometry">
            <mxPoint x="230" y="40" as="sourcePoint" />
            <mxPoint x="300" y="40" as="targetPoint" />
          </mxGeometry>
        </mxCell>
        <mxCell id="UmhEkaX1TgE3mS6SYgg9-4" value="" style="strokeWidth=2;html=1;shape=mxgraph.flowchart.annotation_1;align=left;pointerEvents=1;" parent="1" vertex="1">
          <mxGeometry x="300" y="-10" width="10" height="120" as="geometry" />
        </mxCell>
        <mxCell id="UmhEkaX1TgE3mS6SYgg9-5" value="&lt;div&gt;#include&amp;lt;iostream&amp;gt;&lt;/div&gt;&lt;div&gt;#include&amp;lt;stdlib.h&amp;gt;&lt;/div&gt;&lt;div&gt;#include&amp;lt;ctime&amp;gt;&lt;/div&gt;&lt;div&gt;#include&amp;lt;clocale&amp;gt;&lt;/div&gt;&lt;div&gt;using namespace std;&lt;/div&gt;&lt;div&gt;int const n = 10;&amp;nbsp;&lt;/div&gt;&lt;div&gt;int ind_min=0;&amp;nbsp;&lt;/div&gt;&lt;div&gt;int ind_max=0;&amp;nbsp;&lt;br&gt;&lt;/div&gt;" style="text;html=1;align=center;verticalAlign=middle;resizable=0;points=[];autosize=1;strokeColor=none;fillColor=none;" parent="1" vertex="1">
          <mxGeometry x="290" y="-15" width="140" height="130" as="geometry" />
        </mxCell>
        <mxCell id="UmhEkaX1TgE3mS6SYgg9-6" value="int main()" style="shape=process;whiteSpace=wrap;html=1;backgroundOutline=1;" parent="1" vertex="1">
          <mxGeometry x="180" y="60" width="100" height="40" as="geometry" />
        </mxCell>
        <mxCell id="UmhEkaX1TgE3mS6SYgg9-7" value="" style="endArrow=classic;html=1;rounded=0;" parent="1" edge="1">
          <mxGeometry width="50" height="50" relative="1" as="geometry">
            <mxPoint x="229.5" y="100" as="sourcePoint" />
            <mxPoint x="229.5" y="130" as="targetPoint" />
          </mxGeometry>
        </mxCell>
        <mxCell id="UmhEkaX1TgE3mS6SYgg9-8" value="setlocale (LC_ALL, &quot;rus&quot;);" style="rounded=0;whiteSpace=wrap;html=1;" parent="1" vertex="1">
          <mxGeometry x="170" y="130" width="120" height="30" as="geometry" />
        </mxCell>
        <mxCell id="UmhEkaX1TgE3mS6SYgg9-9" value="" style="endArrow=classic;html=1;rounded=0;" parent="1" edge="1">
          <mxGeometry width="50" height="50" relative="1" as="geometry">
            <mxPoint x="229.5" y="160" as="sourcePoint" />
            <mxPoint x="229.5" y="180" as="targetPoint" />
          </mxGeometry>
        </mxCell>
        <mxCell id="UmhEkaX1TgE3mS6SYgg9-10" value="srand(time(0));" style="rounded=0;whiteSpace=wrap;html=1;" parent="1" vertex="1">
          <mxGeometry x="170" y="180" width="120" height="30" as="geometry" />
        </mxCell>
        <mxCell id="UmhEkaX1TgE3mS6SYgg9-11" value="" style="endArrow=classic;html=1;rounded=0;" parent="1" edge="1">
          <mxGeometry width="50" height="50" relative="1" as="geometry">
            <mxPoint x="229.5" y="210" as="sourcePoint" />
            <mxPoint x="229.5" y="230" as="targetPoint" />
          </mxGeometry>
        </mxCell>
        <mxCell id="UmhEkaX1TgE3mS6SYgg9-12" value="for (int i = 0; i &amp;lt; n; i++)&amp;nbsp;" style="shape=hexagon;perimeter=hexagonPerimeter2;whiteSpace=wrap;html=1;fixedSize=1;" parent="1" vertex="1">
          <mxGeometry x="150" y="280" width="160" height="30" as="geometry" />
        </mxCell>
        <mxCell id="UmhEkaX1TgE3mS6SYgg9-13" value="int a[n];" style="rounded=0;whiteSpace=wrap;html=1;" parent="1" vertex="1">
          <mxGeometry x="170" y="230" width="120" height="30" as="geometry" />
        </mxCell>
        <mxCell id="UmhEkaX1TgE3mS6SYgg9-14" value="" style="endArrow=classic;html=1;rounded=0;" parent="1" edge="1">
          <mxGeometry width="50" height="50" relative="1" as="geometry">
            <mxPoint x="229.5" y="260" as="sourcePoint" />
            <mxPoint x="229.5" y="280" as="targetPoint" />
          </mxGeometry>
        </mxCell>
        <mxCell id="UmhEkaX1TgE3mS6SYgg9-15" value="" style="endArrow=classic;html=1;rounded=0;" parent="1" edge="1">
          <mxGeometry width="50" height="50" relative="1" as="geometry">
            <mxPoint x="229.5" y="310" as="sourcePoint" />
            <mxPoint x="229.5" y="330" as="targetPoint" />
          </mxGeometry>
        </mxCell>
        <mxCell id="UmhEkaX1TgE3mS6SYgg9-16" value="a[i] = rand() % 100;" style="rounded=0;whiteSpace=wrap;html=1;" parent="1" vertex="1">
          <mxGeometry x="170" y="330" width="120" height="30" as="geometry" />
        </mxCell>
        <mxCell id="UmhEkaX1TgE3mS6SYgg9-17" value="" style="endArrow=classic;html=1;rounded=0;" parent="1" edge="1">
          <mxGeometry width="50" height="50" relative="1" as="geometry">
            <mxPoint x="229.5" y="360" as="sourcePoint" />
            <mxPoint x="229.5" y="380" as="targetPoint" />
          </mxGeometry>
        </mxCell>
        <mxCell id="UmhEkaX1TgE3mS6SYgg9-18" value="cout &amp;lt;&amp;lt; a[i] &amp;lt;&amp;lt; &quot; &quot;;" style="shape=parallelogram;perimeter=parallelogramPerimeter;whiteSpace=wrap;html=1;fixedSize=1;" parent="1" vertex="1">
          <mxGeometry x="160" y="380" width="140" height="30" as="geometry" />
        </mxCell>
        <mxCell id="UmhEkaX1TgE3mS6SYgg9-19" value="" style="endArrow=classic;html=1;rounded=0;" parent="1" edge="1">
          <mxGeometry width="50" height="50" relative="1" as="geometry">
            <mxPoint x="229.5" y="410" as="sourcePoint" />
            <mxPoint x="229.5" y="430" as="targetPoint" />
          </mxGeometry>
        </mxCell>
        <mxCell id="UmhEkaX1TgE3mS6SYgg9-20" value="cout &amp;lt;&amp;lt; endl;" style="shape=parallelogram;perimeter=parallelogramPerimeter;whiteSpace=wrap;html=1;fixedSize=1;" parent="1" vertex="1">
          <mxGeometry x="160" y="430" width="140" height="30" as="geometry" />
        </mxCell>
        <mxCell id="UmhEkaX1TgE3mS6SYgg9-21" value="" style="endArrow=classic;html=1;rounded=0;" parent="1" target="UmhEkaX1TgE3mS6SYgg9-23" edge="1">
          <mxGeometry width="50" height="50" relative="1" as="geometry">
            <mxPoint x="229.5" y="460" as="sourcePoint" />
            <mxPoint x="229.5" y="480" as="targetPoint" />
          </mxGeometry>
        </mxCell>
        <mxCell id="UmhEkaX1TgE3mS6SYgg9-23" value="" style="ellipse;whiteSpace=wrap;html=1;aspect=fixed;" parent="1" vertex="1">
          <mxGeometry x="207.5" y="482.5" width="45" height="45" as="geometry" />
        </mxCell>
        <mxCell id="UmhEkaX1TgE3mS6SYgg9-25" value="&lt;font style=&quot;font-size: 18px;&quot;&gt;λ&lt;/font&gt;" style="text;whiteSpace=wrap;html=1;" parent="1" vertex="1">
          <mxGeometry x="225" y="490" width="10" height="30" as="geometry" />
        </mxCell>
        <mxCell id="mBNhG39dvA1WvkFb5wMn-5" value="" style="ellipse;whiteSpace=wrap;html=1;aspect=fixed;" vertex="1" parent="1">
          <mxGeometry x="600" width="45" height="45" as="geometry" />
        </mxCell>
        <mxCell id="mBNhG39dvA1WvkFb5wMn-6" value="&lt;font style=&quot;font-size: 18px;&quot;&gt;λ&lt;/font&gt;" style="text;whiteSpace=wrap;html=1;" vertex="1" parent="1">
          <mxGeometry x="617.5" y="7.5" width="10" height="30" as="geometry" />
        </mxCell>
        <mxCell id="mBNhG39dvA1WvkFb5wMn-8" value="" style="endArrow=classic;html=1;rounded=0;" edge="1" parent="1">
          <mxGeometry width="50" height="50" relative="1" as="geometry">
            <mxPoint x="622" y="45" as="sourcePoint" />
            <mxPoint x="622" y="60" as="targetPoint" />
          </mxGeometry>
        </mxCell>
        <mxCell id="mBNhG39dvA1WvkFb5wMn-9" value="float min = a[0]; float max = a[0];" style="rounded=0;whiteSpace=wrap;html=1;" vertex="1" parent="1">
          <mxGeometry x="572.5" y="60" width="100" height="40" as="geometry" />
        </mxCell>
        <mxCell id="mBNhG39dvA1WvkFb5wMn-10" value="" style="endArrow=classic;html=1;rounded=0;" edge="1" parent="1">
          <mxGeometry width="50" height="50" relative="1" as="geometry">
            <mxPoint x="622" y="100" as="sourcePoint" />
            <mxPoint x="622" y="120" as="targetPoint" />
          </mxGeometry>
        </mxCell>
        <mxCell id="mBNhG39dvA1WvkFb5wMn-11" value="for (int i = 1; i &amp;lt; n; i++)" style="shape=hexagon;perimeter=hexagonPerimeter2;whiteSpace=wrap;html=1;fixedSize=1;" vertex="1" parent="1">
          <mxGeometry x="548.75" y="120" width="147.5" height="40" as="geometry" />
        </mxCell>
        <mxCell id="mBNhG39dvA1WvkFb5wMn-12" value="" style="endArrow=classic;html=1;rounded=0;" edge="1" parent="1">
          <mxGeometry width="50" height="50" relative="1" as="geometry">
            <mxPoint x="622" y="160" as="sourcePoint" />
            <mxPoint x="622" y="190" as="targetPoint" />
          </mxGeometry>
        </mxCell>
        <mxCell id="mBNhG39dvA1WvkFb5wMn-13" value="if (a[i] &amp;lt; min)" style="rhombus;whiteSpace=wrap;html=1;" vertex="1" parent="1">
          <mxGeometry x="572.5" y="190" width="100" height="60" as="geometry" />
        </mxCell>
        <mxCell id="mBNhG39dvA1WvkFb5wMn-14" value="" style="endArrow=classic;html=1;rounded=0;" edge="1" parent="1">
          <mxGeometry width="50" height="50" relative="1" as="geometry">
            <mxPoint x="572.5" y="219.5" as="sourcePoint" />
            <mxPoint x="520" y="250" as="targetPoint" />
            <Array as="points">
              <mxPoint x="520" y="220" />
            </Array>
          </mxGeometry>
        </mxCell>
        <mxCell id="mBNhG39dvA1WvkFb5wMn-16" value="min = a[i];" style="rounded=0;whiteSpace=wrap;html=1;" vertex="1" parent="1">
          <mxGeometry x="472.5" y="250" width="100" height="40" as="geometry" />
        </mxCell>
        <mxCell id="mBNhG39dvA1WvkFb5wMn-17" value="ind_min = i;" style="rounded=0;whiteSpace=wrap;html=1;" vertex="1" parent="1">
          <mxGeometry x="470" y="310" width="100" height="40" as="geometry" />
        </mxCell>
        <mxCell id="mBNhG39dvA1WvkFb5wMn-18" value="" style="endArrow=classic;html=1;rounded=0;" edge="1" parent="1">
          <mxGeometry width="50" height="50" relative="1" as="geometry">
            <mxPoint x="520" y="290" as="sourcePoint" />
            <mxPoint x="520" y="310" as="targetPoint" />
          </mxGeometry>
        </mxCell>
        <mxCell id="mBNhG39dvA1WvkFb5wMn-19" value="" style="endArrow=classic;html=1;rounded=0;exitX=1;exitY=0.5;exitDx=0;exitDy=0;" edge="1" parent="1" source="mBNhG39dvA1WvkFb5wMn-13">
          <mxGeometry width="50" height="50" relative="1" as="geometry">
            <mxPoint x="680" y="219.5" as="sourcePoint" />
            <mxPoint x="620" y="360" as="targetPoint" />
            <Array as="points">
              <mxPoint x="720" y="220" />
              <mxPoint x="720" y="360" />
            </Array>
          </mxGeometry>
        </mxCell>
        <mxCell id="mBNhG39dvA1WvkFb5wMn-20" value="" style="endArrow=classic;html=1;rounded=0;" edge="1" parent="1">
          <mxGeometry width="50" height="50" relative="1" as="geometry">
            <mxPoint x="519.5" y="350" as="sourcePoint" />
            <mxPoint x="620" y="360" as="targetPoint" />
            <Array as="points">
              <mxPoint x="520" y="360" />
            </Array>
          </mxGeometry>
        </mxCell>
        <mxCell id="mBNhG39dvA1WvkFb5wMn-21" value="" style="endArrow=classic;html=1;rounded=0;" edge="1" parent="1">
          <mxGeometry width="50" height="50" relative="1" as="geometry">
            <mxPoint x="622" y="360" as="sourcePoint" />
            <mxPoint x="622" y="380" as="targetPoint" />
          </mxGeometry>
        </mxCell>
        <mxCell id="mBNhG39dvA1WvkFb5wMn-22" value="if (a[i] &amp;lt; min)" style="rhombus;whiteSpace=wrap;html=1;" vertex="1" parent="1">
          <mxGeometry x="572.5" y="380" width="100" height="60" as="geometry" />
        </mxCell>
        <mxCell id="mBNhG39dvA1WvkFb5wMn-23" value="" style="endArrow=classic;html=1;rounded=0;" edge="1" parent="1">
          <mxGeometry width="50" height="50" relative="1" as="geometry">
            <mxPoint x="572.5" y="409.5" as="sourcePoint" />
            <mxPoint x="520" y="440" as="targetPoint" />
            <Array as="points">
              <mxPoint x="520" y="410" />
            </Array>
          </mxGeometry>
        </mxCell>
        <mxCell id="mBNhG39dvA1WvkFb5wMn-24" value="max = a[i];" style="rounded=0;whiteSpace=wrap;html=1;" vertex="1" parent="1">
          <mxGeometry x="472.5" y="440" width="100" height="40" as="geometry" />
        </mxCell>
        <mxCell id="mBNhG39dvA1WvkFb5wMn-25" value="ind_max = i;" style="rounded=0;whiteSpace=wrap;html=1;" vertex="1" parent="1">
          <mxGeometry x="470" y="500" width="100" height="40" as="geometry" />
        </mxCell>
        <mxCell id="mBNhG39dvA1WvkFb5wMn-26" value="" style="endArrow=classic;html=1;rounded=0;" edge="1" parent="1">
          <mxGeometry width="50" height="50" relative="1" as="geometry">
            <mxPoint x="520" y="480" as="sourcePoint" />
            <mxPoint x="520" y="500" as="targetPoint" />
          </mxGeometry>
        </mxCell>
        <mxCell id="mBNhG39dvA1WvkFb5wMn-27" value="" style="endArrow=classic;html=1;rounded=0;exitX=1;exitY=0.5;exitDx=0;exitDy=0;" edge="1" parent="1" source="mBNhG39dvA1WvkFb5wMn-22">
          <mxGeometry width="50" height="50" relative="1" as="geometry">
            <mxPoint x="680" y="409.5" as="sourcePoint" />
            <mxPoint x="620" y="550" as="targetPoint" />
            <Array as="points">
              <mxPoint x="720" y="410" />
              <mxPoint x="720" y="550" />
            </Array>
          </mxGeometry>
        </mxCell>
        <mxCell id="mBNhG39dvA1WvkFb5wMn-28" value="" style="endArrow=classic;html=1;rounded=0;" edge="1" parent="1">
          <mxGeometry width="50" height="50" relative="1" as="geometry">
            <mxPoint x="519.5" y="540" as="sourcePoint" />
            <mxPoint x="620" y="550" as="targetPoint" />
            <Array as="points">
              <mxPoint x="520" y="550" />
            </Array>
          </mxGeometry>
        </mxCell>
        <mxCell id="mBNhG39dvA1WvkFb5wMn-29" value="" style="endArrow=classic;html=1;rounded=0;entryX=0;entryY=0.5;entryDx=0;entryDy=0;" edge="1" parent="1" target="mBNhG39dvA1WvkFb5wMn-11">
          <mxGeometry width="50" height="50" relative="1" as="geometry">
            <mxPoint x="622" y="550" as="sourcePoint" />
            <mxPoint x="440" y="50" as="targetPoint" />
            <Array as="points">
              <mxPoint x="622" y="580" />
              <mxPoint x="440" y="580" />
              <mxPoint x="440" y="140" />
            </Array>
          </mxGeometry>
        </mxCell>
        <mxCell id="mBNhG39dvA1WvkFb5wMn-30" value="" style="ellipse;whiteSpace=wrap;html=1;aspect=fixed;" vertex="1" parent="1">
          <mxGeometry x="740" y="590" width="47.5" height="47.5" as="geometry" />
        </mxCell>
        <mxCell id="mBNhG39dvA1WvkFb5wMn-31" value="&lt;font style=&quot;font-size: 18px;&quot;&gt;λ&lt;/font&gt;" style="text;whiteSpace=wrap;html=1;" vertex="1" parent="1">
          <mxGeometry x="758.75" y="598.75" width="10" height="30" as="geometry" />
        </mxCell>
        <mxCell id="mBNhG39dvA1WvkFb5wMn-33" value="" style="ellipse;whiteSpace=wrap;html=1;aspect=fixed;" vertex="1" parent="1">
          <mxGeometry x="1090" width="45" height="45" as="geometry" />
        </mxCell>
        <mxCell id="mBNhG39dvA1WvkFb5wMn-34" value="&lt;font style=&quot;font-size: 18px;&quot;&gt;λ&lt;/font&gt;" style="text;whiteSpace=wrap;html=1;" vertex="1" parent="1">
          <mxGeometry x="1107.5" y="7.5" width="10" height="30" as="geometry" />
        </mxCell>
        <mxCell id="mBNhG39dvA1WvkFb5wMn-36" value="" style="endArrow=classic;html=1;rounded=0;" edge="1" parent="1">
          <mxGeometry width="50" height="50" relative="1" as="geometry">
            <mxPoint x="1111.9099999999999" y="45" as="sourcePoint" />
            <mxPoint x="1112.4099999999999" y="70" as="targetPoint" />
          </mxGeometry>
        </mxCell>
        <mxCell id="mBNhG39dvA1WvkFb5wMn-37" value="int r = a[ind_max];" style="rounded=0;whiteSpace=wrap;html=1;" vertex="1" parent="1">
          <mxGeometry x="1063.75" y="70" width="100" height="40" as="geometry" />
        </mxCell>
        <mxCell id="mBNhG39dvA1WvkFb5wMn-38" value="a[ind_max] = a[ind_min];" style="rounded=0;whiteSpace=wrap;html=1;" vertex="1" parent="1">
          <mxGeometry x="1063.75" y="130" width="100" height="40" as="geometry" />
        </mxCell>
        <mxCell id="mBNhG39dvA1WvkFb5wMn-39" value="" style="endArrow=classic;html=1;rounded=0;" edge="1" parent="1">
          <mxGeometry width="50" height="50" relative="1" as="geometry">
            <mxPoint x="1111.25" y="110" as="sourcePoint" />
            <mxPoint x="1111.25" y="130" as="targetPoint" />
          </mxGeometry>
        </mxCell>
        <mxCell id="mBNhG39dvA1WvkFb5wMn-40" value="a[ind_min] = r;" style="rounded=0;whiteSpace=wrap;html=1;" vertex="1" parent="1">
          <mxGeometry x="1062.5" y="190" width="100" height="40" as="geometry" />
        </mxCell>
        <mxCell id="mBNhG39dvA1WvkFb5wMn-41" value="" style="endArrow=classic;html=1;rounded=0;" edge="1" parent="1">
          <mxGeometry width="50" height="50" relative="1" as="geometry">
            <mxPoint x="1110" y="170" as="sourcePoint" />
            <mxPoint x="1110" y="190" as="targetPoint" />
          </mxGeometry>
        </mxCell>
        <mxCell id="mBNhG39dvA1WvkFb5wMn-42" value="" style="endArrow=classic;html=1;rounded=0;" edge="1" parent="1">
          <mxGeometry width="50" height="50" relative="1" as="geometry">
            <mxPoint x="1107.5" y="230" as="sourcePoint" />
            <mxPoint x="1108" y="250" as="targetPoint" />
          </mxGeometry>
        </mxCell>
        <mxCell id="mBNhG39dvA1WvkFb5wMn-43" value="cout &amp;lt;&amp;lt;&quot;минимальный элемент = &quot;&amp;lt;&amp;lt;min &amp;lt;&amp;lt;endl&amp;lt;&amp;lt;&quot;максимальный элемент = &quot; &amp;lt;&amp;lt; max &amp;lt;&amp;lt; endl;" style="shape=parallelogram;perimeter=parallelogramPerimeter;whiteSpace=wrap;html=1;fixedSize=1;" vertex="1" parent="1">
          <mxGeometry x="930" y="250" width="350" height="60" as="geometry" />
        </mxCell>
        <mxCell id="mBNhG39dvA1WvkFb5wMn-44" value="" style="endArrow=classic;html=1;rounded=0;" edge="1" parent="1">
          <mxGeometry width="50" height="50" relative="1" as="geometry">
            <mxPoint x="1107.5" y="310" as="sourcePoint" />
            <mxPoint x="1108" y="330" as="targetPoint" />
          </mxGeometry>
        </mxCell>
        <mxCell id="mBNhG39dvA1WvkFb5wMn-45" value="cout &lt;&lt; &quot;массив с заменой &quot;;" style="shape=parallelogram;perimeter=parallelogramPerimeter;whiteSpace=wrap;html=1;fixedSize=1;" vertex="1" parent="1">
          <mxGeometry x="1000" y="330" width="210" height="60" as="geometry" />
        </mxCell>
        <mxCell id="mBNhG39dvA1WvkFb5wMn-47" value="" style="endArrow=classic;html=1;rounded=0;" edge="1" parent="1">
          <mxGeometry width="50" height="50" relative="1" as="geometry">
            <mxPoint x="690" y="139.41" as="sourcePoint" />
            <mxPoint x="760" y="590" as="targetPoint" />
            <Array as="points">
              <mxPoint x="760" y="140" />
            </Array>
          </mxGeometry>
        </mxCell>
        <mxCell id="mBNhG39dvA1WvkFb5wMn-48" value="&lt;span style=&quot;white-space: normal;&quot;&gt;&lt;span style=&quot;white-space:pre&quot;&gt;&#x9;&lt;/span&gt;for (int i = 0; i &amp;lt; n; i++)&amp;nbsp;&lt;/span&gt;" style="shape=hexagon;perimeter=hexagonPerimeter2;whiteSpace=wrap;html=1;fixedSize=1;" vertex="1" parent="1">
          <mxGeometry x="1015.63" y="410" width="178.75" height="40" as="geometry" />
        </mxCell>
        <mxCell id="mBNhG39dvA1WvkFb5wMn-49" value="" style="endArrow=classic;html=1;rounded=0;" edge="1" parent="1">
          <mxGeometry width="50" height="50" relative="1" as="geometry">
            <mxPoint x="1107.5" y="450" as="sourcePoint" />
            <mxPoint x="1107.5" y="480" as="targetPoint" />
          </mxGeometry>
        </mxCell>
        <mxCell id="mBNhG39dvA1WvkFb5wMn-50" value="" style="endArrow=classic;html=1;rounded=0;" edge="1" parent="1">
          <mxGeometry width="50" height="50" relative="1" as="geometry">
            <mxPoint x="1107.5" y="390" as="sourcePoint" />
            <mxPoint x="1107.5" y="410" as="targetPoint" />
          </mxGeometry>
        </mxCell>
        <mxCell id="mBNhG39dvA1WvkFb5wMn-52" value="cout &amp;lt;&amp;lt; a[i] &amp;lt;&amp;lt; &quot; &quot;;" style="shape=parallelogram;perimeter=parallelogramPerimeter;whiteSpace=wrap;html=1;fixedSize=1;" vertex="1" parent="1">
          <mxGeometry x="1000.01" y="480" width="209.99" height="40" as="geometry" />
        </mxCell>
        <mxCell id="mBNhG39dvA1WvkFb5wMn-53" value="" style="endArrow=classic;html=1;rounded=0;entryX=0;entryY=0.5;entryDx=0;entryDy=0;" edge="1" parent="1" target="mBNhG39dvA1WvkFb5wMn-48">
          <mxGeometry width="50" height="50" relative="1" as="geometry">
            <mxPoint x="1107.5" y="520" as="sourcePoint" />
            <mxPoint x="960" y="360" as="targetPoint" />
            <Array as="points">
              <mxPoint x="1107" y="540" />
              <mxPoint x="960" y="540" />
              <mxPoint x="960" y="430" />
            </Array>
          </mxGeometry>
        </mxCell>
        <mxCell id="mBNhG39dvA1WvkFb5wMn-54" value="cout &amp;lt;&amp;lt; endl;" style="shape=parallelogram;perimeter=parallelogramPerimeter;whiteSpace=wrap;html=1;fixedSize=1;" vertex="1" parent="1">
          <mxGeometry x="1015.63" y="580" width="209.99" height="40" as="geometry" />
        </mxCell>
        <mxCell id="mBNhG39dvA1WvkFb5wMn-55" value="" style="endArrow=classic;html=1;rounded=0;" edge="1" parent="1">
          <mxGeometry width="50" height="50" relative="1" as="geometry">
            <mxPoint x="1194.38" y="430" as="sourcePoint" />
            <mxPoint x="1120" y="580" as="targetPoint" />
            <Array as="points">
              <mxPoint x="1240" y="430" />
              <mxPoint x="1240" y="560" />
              <mxPoint x="1120" y="560" />
            </Array>
          </mxGeometry>
        </mxCell>
        <mxCell id="mBNhG39dvA1WvkFb5wMn-56" value="" style="endArrow=classic;html=1;rounded=0;" edge="1" parent="1">
          <mxGeometry width="50" height="50" relative="1" as="geometry">
            <mxPoint x="1117.5" y="620" as="sourcePoint" />
            <mxPoint x="1117" y="640" as="targetPoint" />
          </mxGeometry>
        </mxCell>
        <mxCell id="mBNhG39dvA1WvkFb5wMn-57" value="" style="ellipse;whiteSpace=wrap;html=1;aspect=fixed;" vertex="1" parent="1">
          <mxGeometry x="1096.88" y="637.5" width="47.5" height="47.5" as="geometry" />
        </mxCell>
        <mxCell id="mBNhG39dvA1WvkFb5wMn-58" value="&lt;font style=&quot;font-size: 18px;&quot;&gt;λ&lt;/font&gt;" style="text;whiteSpace=wrap;html=1;" vertex="1" parent="1">
          <mxGeometry x="1115.63" y="646.25" width="10" height="30" as="geometry" />
        </mxCell>
        <mxCell id="mBNhG39dvA1WvkFb5wMn-60" value="" style="ellipse;whiteSpace=wrap;html=1;aspect=fixed;" vertex="1" parent="1">
          <mxGeometry x="1520" y="40" width="45" height="45" as="geometry" />
        </mxCell>
        <mxCell id="mBNhG39dvA1WvkFb5wMn-61" value="&lt;font style=&quot;font-size: 18px;&quot;&gt;λ&lt;/font&gt;" style="text;whiteSpace=wrap;html=1;" vertex="1" parent="1">
          <mxGeometry x="1537.5" y="47.5" width="10" height="30" as="geometry" />
        </mxCell>
        <mxCell id="mBNhG39dvA1WvkFb5wMn-62" value="" style="endArrow=classic;html=1;rounded=0;" edge="1" parent="1" target="mBNhG39dvA1WvkFb5wMn-63">
          <mxGeometry width="50" height="50" relative="1" as="geometry">
            <mxPoint x="1542.41" y="85" as="sourcePoint" />
            <mxPoint x="1542" y="100" as="targetPoint" />
          </mxGeometry>
        </mxCell>
        <mxCell id="mBNhG39dvA1WvkFb5wMn-63" value="double sum = 0;" style="rounded=0;whiteSpace=wrap;html=1;" vertex="1" parent="1">
          <mxGeometry x="1482.5" y="100" width="117.5" height="30" as="geometry" />
        </mxCell>
        <mxCell id="mBNhG39dvA1WvkFb5wMn-64" value="" style="endArrow=classic;html=1;rounded=0;" edge="1" parent="1">
          <mxGeometry width="50" height="50" relative="1" as="geometry">
            <mxPoint x="1540" y="130" as="sourcePoint" />
            <mxPoint x="1540" y="160" as="targetPoint" />
          </mxGeometry>
        </mxCell>
        <mxCell id="mBNhG39dvA1WvkFb5wMn-65" value="for (int i = 0; i &amp;lt; n; i++)&amp;nbsp;" style="shape=hexagon;perimeter=hexagonPerimeter2;whiteSpace=wrap;html=1;fixedSize=1;" vertex="1" parent="1">
          <mxGeometry x="1445.63" y="160" width="178.75" height="40" as="geometry" />
        </mxCell>
        <mxCell id="mBNhG39dvA1WvkFb5wMn-66" value="" style="endArrow=classic;html=1;rounded=0;" edge="1" parent="1">
          <mxGeometry width="50" height="50" relative="1" as="geometry">
            <mxPoint x="1537.5" y="200" as="sourcePoint" />
            <mxPoint x="1537.5" y="230" as="targetPoint" />
          </mxGeometry>
        </mxCell>
        <mxCell id="mBNhG39dvA1WvkFb5wMn-68" value="" style="endArrow=classic;html=1;rounded=0;entryX=0;entryY=0.5;entryDx=0;entryDy=0;" edge="1" parent="1" target="mBNhG39dvA1WvkFb5wMn-65">
          <mxGeometry width="50" height="50" relative="1" as="geometry">
            <mxPoint x="1537.5" y="270" as="sourcePoint" />
            <mxPoint x="1390" y="110" as="targetPoint" />
            <Array as="points">
              <mxPoint x="1537" y="290" />
              <mxPoint x="1390" y="290" />
              <mxPoint x="1390" y="180" />
            </Array>
          </mxGeometry>
        </mxCell>
        <mxCell id="mBNhG39dvA1WvkFb5wMn-69" value="" style="endArrow=classic;html=1;rounded=0;" edge="1" parent="1">
          <mxGeometry width="50" height="50" relative="1" as="geometry">
            <mxPoint x="1624.38" y="180" as="sourcePoint" />
            <mxPoint x="1550" y="330" as="targetPoint" />
            <Array as="points">
              <mxPoint x="1670" y="180" />
              <mxPoint x="1670" y="310" />
              <mxPoint x="1550" y="310" />
            </Array>
          </mxGeometry>
        </mxCell>
        <mxCell id="mBNhG39dvA1WvkFb5wMn-70" value="sum += a[i];" style="rounded=0;whiteSpace=wrap;html=1;" vertex="1" parent="1">
          <mxGeometry x="1487.51" y="230" width="102.49" height="40" as="geometry" />
        </mxCell>
        <mxCell id="mBNhG39dvA1WvkFb5wMn-71" value="double avg = sum / n;" style="rounded=0;whiteSpace=wrap;html=1;" vertex="1" parent="1">
          <mxGeometry x="1487.51" y="330" width="132.49" height="30" as="geometry" />
        </mxCell>
        <mxCell id="mBNhG39dvA1WvkFb5wMn-72" value="" style="endArrow=classic;html=1;rounded=0;" edge="1" parent="1">
          <mxGeometry width="50" height="50" relative="1" as="geometry">
            <mxPoint x="1547.5" y="360" as="sourcePoint" />
            <mxPoint x="1547" y="380" as="targetPoint" />
          </mxGeometry>
        </mxCell>
        <mxCell id="mBNhG39dvA1WvkFb5wMn-75" value="cout &amp;lt;&amp;lt; &quot;среднее значение массива = &quot; &amp;lt;&amp;lt;avg&amp;lt;&amp;lt;endl;" style="shape=parallelogram;perimeter=parallelogramPerimeter;whiteSpace=wrap;html=1;fixedSize=1;" vertex="1" parent="1">
          <mxGeometry x="1416.25" y="380" width="252.49" height="40" as="geometry" />
        </mxCell>
        <mxCell id="mBNhG39dvA1WvkFb5wMn-76" value="" style="endArrow=classic;html=1;rounded=0;" edge="1" parent="1">
          <mxGeometry width="50" height="50" relative="1" as="geometry">
            <mxPoint x="1547.5" y="420" as="sourcePoint" />
            <mxPoint x="1548" y="440" as="targetPoint" />
          </mxGeometry>
        </mxCell>
        <mxCell id="mBNhG39dvA1WvkFb5wMn-77" value="int new_n = 0;" style="rounded=0;whiteSpace=wrap;html=1;" vertex="1" parent="1">
          <mxGeometry x="1487.51" y="440" width="112.49" height="30" as="geometry" />
        </mxCell>
        <mxCell id="mBNhG39dvA1WvkFb5wMn-78" value="" style="endArrow=classic;html=1;rounded=0;" edge="1" parent="1">
          <mxGeometry width="50" height="50" relative="1" as="geometry">
            <mxPoint x="1547.5" y="470" as="sourcePoint" />
            <mxPoint x="1548" y="490" as="targetPoint" />
          </mxGeometry>
        </mxCell>
        <mxCell id="mBNhG39dvA1WvkFb5wMn-79" value="int new_n = 0;" style="rounded=0;whiteSpace=wrap;html=1;" vertex="1" parent="1">
          <mxGeometry x="1487.51" y="490" width="112.49" height="30" as="geometry" />
        </mxCell>
        <mxCell id="mBNhG39dvA1WvkFb5wMn-80" value="" style="endArrow=classic;html=1;rounded=0;" edge="1" parent="1">
          <mxGeometry width="50" height="50" relative="1" as="geometry">
            <mxPoint x="1547.5" y="520" as="sourcePoint" />
            <mxPoint x="1548" y="540" as="targetPoint" />
          </mxGeometry>
        </mxCell>
        <mxCell id="mBNhG39dvA1WvkFb5wMn-81" value="for (int i=0; i &amp;lt; n; i++)&amp;nbsp;" style="shape=hexagon;perimeter=hexagonPerimeter2;whiteSpace=wrap;html=1;fixedSize=1;" vertex="1" parent="1">
          <mxGeometry x="1480.63" y="540" width="143.75" height="50" as="geometry" />
        </mxCell>
        <mxCell id="mBNhG39dvA1WvkFb5wMn-82" value="" style="endArrow=classic;html=1;rounded=0;" edge="1" parent="1">
          <mxGeometry width="50" height="50" relative="1" as="geometry">
            <mxPoint x="1547.5" y="590" as="sourcePoint" />
            <mxPoint x="1548" y="610" as="targetPoint" />
          </mxGeometry>
        </mxCell>
        <mxCell id="mBNhG39dvA1WvkFb5wMn-83" value="if (a[i] &amp;lt;= avg * 1.1)" style="rhombus;whiteSpace=wrap;html=1;" vertex="1" parent="1">
          <mxGeometry x="1487.51" y="606.25" width="122.49" height="70" as="geometry" />
        </mxCell>
        <mxCell id="mBNhG39dvA1WvkFb5wMn-84" value="" style="endArrow=classic;html=1;rounded=0;" edge="1" parent="1" target="mBNhG39dvA1WvkFb5wMn-85">
          <mxGeometry width="50" height="50" relative="1" as="geometry">
            <mxPoint x="1487.51" y="640" as="sourcePoint" />
            <mxPoint x="1460" y="680" as="targetPoint" />
            <Array as="points">
              <mxPoint x="1460" y="640" />
            </Array>
          </mxGeometry>
        </mxCell>
        <mxCell id="mBNhG39dvA1WvkFb5wMn-85" value="a[new_n++]=a[i];&amp;nbsp;" style="rounded=0;whiteSpace=wrap;html=1;" vertex="1" parent="1">
          <mxGeometry x="1410" y="676.25" width="100" height="33.75" as="geometry" />
        </mxCell>
        <mxCell id="mBNhG39dvA1WvkFb5wMn-86" value="" style="endArrow=classic;html=1;rounded=0;" edge="1" parent="1">
          <mxGeometry width="50" height="50" relative="1" as="geometry">
            <mxPoint x="1460" y="710" as="sourcePoint" />
            <mxPoint x="1540" y="730" as="targetPoint" />
            <Array as="points">
              <mxPoint x="1460" y="730" />
            </Array>
          </mxGeometry>
        </mxCell>
        <mxCell id="mBNhG39dvA1WvkFb5wMn-87" value="" style="endArrow=classic;html=1;rounded=0;" edge="1" parent="1">
          <mxGeometry width="50" height="50" relative="1" as="geometry">
            <mxPoint x="1610" y="640" as="sourcePoint" />
            <mxPoint x="1540" y="730" as="targetPoint" />
            <Array as="points">
              <mxPoint x="1640" y="640" />
              <mxPoint x="1640" y="730" />
            </Array>
          </mxGeometry>
        </mxCell>
        <mxCell id="mBNhG39dvA1WvkFb5wMn-88" value="" style="endArrow=classic;html=1;rounded=0;entryX=0;entryY=0.5;entryDx=0;entryDy=0;" edge="1" parent="1" target="mBNhG39dvA1WvkFb5wMn-81">
          <mxGeometry width="50" height="50" relative="1" as="geometry">
            <mxPoint x="1540" y="730" as="sourcePoint" />
            <mxPoint x="1480" y="570" as="targetPoint" />
            <Array as="points">
              <mxPoint x="1540" y="750" />
              <mxPoint x="1390" y="750" />
              <mxPoint x="1390" y="565" />
            </Array>
          </mxGeometry>
        </mxCell>
        <mxCell id="mBNhG39dvA1WvkFb5wMn-90" value="" style="endArrow=classic;html=1;rounded=0;exitX=1;exitY=0.5;exitDx=0;exitDy=0;" edge="1" parent="1" source="mBNhG39dvA1WvkFb5wMn-81">
          <mxGeometry width="50" height="50" relative="1" as="geometry">
            <mxPoint x="1624.38" y="560" as="sourcePoint" />
            <mxPoint x="1550" y="800" as="targetPoint" />
            <Array as="points">
              <mxPoint x="1680" y="565" />
              <mxPoint x="1680" y="770" />
              <mxPoint x="1550" y="770" />
            </Array>
          </mxGeometry>
        </mxCell>
        <mxCell id="mBNhG39dvA1WvkFb5wMn-91" value="cout &amp;lt;&amp;lt; &quot;Итоговый массив &quot;;" style="shape=parallelogram;perimeter=parallelogramPerimeter;whiteSpace=wrap;html=1;fixedSize=1;" vertex="1" parent="1">
          <mxGeometry x="1480.63" y="800" width="140" height="40" as="geometry" />
        </mxCell>
        <mxCell id="mBNhG39dvA1WvkFb5wMn-92" value="" style="endArrow=classic;html=1;rounded=0;exitX=0.5;exitY=1;exitDx=0;exitDy=0;" edge="1" parent="1" source="mBNhG39dvA1WvkFb5wMn-91">
          <mxGeometry width="50" height="50" relative="1" as="geometry">
            <mxPoint x="1550" y="845" as="sourcePoint" />
            <mxPoint x="1550" y="870" as="targetPoint" />
          </mxGeometry>
        </mxCell>
        <mxCell id="mBNhG39dvA1WvkFb5wMn-93" value="for (int i = 0; i &amp;lt; new_n; i++)&amp;nbsp;" style="shape=hexagon;perimeter=hexagonPerimeter2;whiteSpace=wrap;html=1;fixedSize=1;" vertex="1" parent="1">
          <mxGeometry x="1456.88" y="870" width="178.75" height="40" as="geometry" />
        </mxCell>
        <mxCell id="mBNhG39dvA1WvkFb5wMn-94" value="" style="endArrow=classic;html=1;rounded=0;" edge="1" parent="1">
          <mxGeometry width="50" height="50" relative="1" as="geometry">
            <mxPoint x="1548.75" y="910" as="sourcePoint" />
            <mxPoint x="1548.75" y="940" as="targetPoint" />
          </mxGeometry>
        </mxCell>
        <mxCell id="mBNhG39dvA1WvkFb5wMn-95" value="" style="endArrow=classic;html=1;rounded=0;entryX=0;entryY=0.5;entryDx=0;entryDy=0;" edge="1" parent="1" target="mBNhG39dvA1WvkFb5wMn-93">
          <mxGeometry width="50" height="50" relative="1" as="geometry">
            <mxPoint x="1548.75" y="980" as="sourcePoint" />
            <mxPoint x="1401.25" y="820" as="targetPoint" />
            <Array as="points">
              <mxPoint x="1548.25" y="1000" />
              <mxPoint x="1401.25" y="1000" />
              <mxPoint x="1401.25" y="890" />
            </Array>
          </mxGeometry>
        </mxCell>
        <mxCell id="mBNhG39dvA1WvkFb5wMn-96" value="" style="endArrow=classic;html=1;rounded=0;" edge="1" parent="1">
          <mxGeometry width="50" height="50" relative="1" as="geometry">
            <mxPoint x="1635.63" y="890" as="sourcePoint" />
            <mxPoint x="1561.25" y="1040" as="targetPoint" />
            <Array as="points">
              <mxPoint x="1681.25" y="890" />
              <mxPoint x="1681.25" y="1020" />
              <mxPoint x="1561.25" y="1020" />
            </Array>
          </mxGeometry>
        </mxCell>
        <mxCell id="mBNhG39dvA1WvkFb5wMn-98" value="cout &amp;lt;&amp;lt; a[i] &amp;lt;&amp;lt; &quot; &quot;;" style="shape=parallelogram;perimeter=parallelogramPerimeter;whiteSpace=wrap;html=1;fixedSize=1;" vertex="1" parent="1">
          <mxGeometry x="1481.89" y="940" width="128.74" height="40" as="geometry" />
        </mxCell>
        <mxCell id="mBNhG39dvA1WvkFb5wMn-99" value="return 0;" style="ellipse;whiteSpace=wrap;html=1;" vertex="1" parent="1">
          <mxGeometry x="1500" y="1040" width="130" height="40" as="geometry" />
        </mxCell>
        <mxCell id="mBNhG39dvA1WvkFb5wMn-100" value="{" style="text;html=1;align=center;verticalAlign=middle;resizable=0;points=[];autosize=1;strokeColor=none;fillColor=none;" vertex="1" parent="1">
          <mxGeometry x="190" y="100" width="30" height="30" as="geometry" />
        </mxCell>
        <mxCell id="mBNhG39dvA1WvkFb5wMn-101" value="}" style="text;html=1;align=center;verticalAlign=middle;resizable=0;points=[];autosize=1;strokeColor=none;fillColor=none;" vertex="1" parent="1">
          <mxGeometry x="1570" y="1070" width="30" height="30" as="geometry" />
        </mxCell>
        <mxCell id="mBNhG39dvA1WvkFb5wMn-102" value="1" style="text;html=1;align=center;verticalAlign=middle;resizable=0;points=[];autosize=1;strokeColor=none;fillColor=none;" vertex="1" parent="1">
          <mxGeometry x="1547.5" y="910" width="30" height="30" as="geometry" />
        </mxCell>
        <mxCell id="mBNhG39dvA1WvkFb5wMn-103" value="0" style="text;html=1;align=center;verticalAlign=middle;resizable=0;points=[];autosize=1;strokeColor=none;fillColor=none;" vertex="1" parent="1">
          <mxGeometry x="1638.74" y="860" width="30" height="30" as="geometry" />
        </mxCell>
        <mxCell id="mBNhG39dvA1WvkFb5wMn-104" value="1" style="text;html=1;align=center;verticalAlign=middle;resizable=0;points=[];autosize=1;strokeColor=none;fillColor=none;" vertex="1" parent="1">
          <mxGeometry x="1457.51" y="616.25" width="30" height="30" as="geometry" />
        </mxCell>
        <mxCell id="mBNhG39dvA1WvkFb5wMn-105" value="0" style="text;html=1;align=center;verticalAlign=middle;resizable=0;points=[];autosize=1;strokeColor=none;fillColor=none;" vertex="1" parent="1">
          <mxGeometry x="1605.63" y="616.25" width="30" height="30" as="geometry" />
        </mxCell>
        <mxCell id="mBNhG39dvA1WvkFb5wMn-106" value="1" style="text;html=1;align=center;verticalAlign=middle;resizable=0;points=[];autosize=1;strokeColor=none;fillColor=none;" vertex="1" parent="1">
          <mxGeometry x="1547.5" y="585" width="30" height="30" as="geometry" />
        </mxCell>
        <mxCell id="mBNhG39dvA1WvkFb5wMn-107" value="0" style="text;html=1;align=center;verticalAlign=middle;resizable=0;points=[];autosize=1;strokeColor=none;fillColor=none;" vertex="1" parent="1">
          <mxGeometry x="1630" y="540" width="30" height="30" as="geometry" />
        </mxCell>
        <mxCell id="mBNhG39dvA1WvkFb5wMn-108" value="1" style="text;html=1;align=center;verticalAlign=middle;resizable=0;points=[];autosize=1;strokeColor=none;fillColor=none;" vertex="1" parent="1">
          <mxGeometry x="1535" y="200" width="30" height="30" as="geometry" />
        </mxCell>
        <mxCell id="mBNhG39dvA1WvkFb5wMn-109" value="0" style="text;html=1;align=center;verticalAlign=middle;resizable=0;points=[];autosize=1;strokeColor=none;fillColor=none;" vertex="1" parent="1">
          <mxGeometry x="1630" y="150" width="30" height="30" as="geometry" />
        </mxCell>
        <mxCell id="mBNhG39dvA1WvkFb5wMn-110" value="1" style="text;html=1;align=center;verticalAlign=middle;resizable=0;points=[];autosize=1;strokeColor=none;fillColor=none;" vertex="1" parent="1">
          <mxGeometry x="1105" y="450" width="30" height="30" as="geometry" />
        </mxCell>
        <mxCell id="mBNhG39dvA1WvkFb5wMn-111" value="0" style="text;html=1;align=center;verticalAlign=middle;resizable=0;points=[];autosize=1;strokeColor=none;fillColor=none;" vertex="1" parent="1">
          <mxGeometry x="1194.38" y="400" width="30" height="30" as="geometry" />
        </mxCell>
        <mxCell id="mBNhG39dvA1WvkFb5wMn-112" value="1" style="text;html=1;align=center;verticalAlign=middle;resizable=0;points=[];autosize=1;strokeColor=none;fillColor=none;" vertex="1" parent="1">
          <mxGeometry x="535" y="385" width="30" height="30" as="geometry" />
        </mxCell>
        <mxCell id="mBNhG39dvA1WvkFb5wMn-113" value="0" style="text;html=1;align=center;verticalAlign=middle;resizable=0;points=[];autosize=1;strokeColor=none;fillColor=none;" vertex="1" parent="1">
          <mxGeometry x="672.5" y="380" width="30" height="30" as="geometry" />
        </mxCell>
        <mxCell id="mBNhG39dvA1WvkFb5wMn-114" value="{" style="text;html=1;align=center;verticalAlign=middle;resizable=0;points=[];autosize=1;strokeColor=none;fillColor=none;" vertex="1" parent="1">
          <mxGeometry x="485" y="415" width="30" height="30" as="geometry" />
        </mxCell>
        <mxCell id="mBNhG39dvA1WvkFb5wMn-115" value="}" style="text;html=1;align=center;verticalAlign=middle;resizable=0;points=[];autosize=1;strokeColor=none;fillColor=none;" vertex="1" parent="1">
          <mxGeometry x="535" y="540" width="30" height="30" as="geometry" />
        </mxCell>
        <mxCell id="mBNhG39dvA1WvkFb5wMn-116" value="1" style="text;html=1;align=center;verticalAlign=middle;resizable=0;points=[];autosize=1;strokeColor=none;fillColor=none;" vertex="1" parent="1">
          <mxGeometry x="535" y="195" width="30" height="30" as="geometry" />
        </mxCell>
        <mxCell id="mBNhG39dvA1WvkFb5wMn-117" value="0" style="text;html=1;align=center;verticalAlign=middle;resizable=0;points=[];autosize=1;strokeColor=none;fillColor=none;" vertex="1" parent="1">
          <mxGeometry x="680" y="195" width="30" height="30" as="geometry" />
        </mxCell>
        <mxCell id="mBNhG39dvA1WvkFb5wMn-118" value="1" style="text;html=1;align=center;verticalAlign=middle;resizable=0;points=[];autosize=1;strokeColor=none;fillColor=none;" vertex="1" parent="1">
          <mxGeometry x="617.5" y="160" width="30" height="30" as="geometry" />
        </mxCell>
        <mxCell id="mBNhG39dvA1WvkFb5wMn-119" value="0" style="text;html=1;align=center;verticalAlign=middle;resizable=0;points=[];autosize=1;strokeColor=none;fillColor=none;" vertex="1" parent="1">
          <mxGeometry x="710" y="115" width="30" height="30" as="geometry" />
        </mxCell>
        <mxCell id="mBNhG39dvA1WvkFb5wMn-120" value="{" style="text;html=1;align=center;verticalAlign=middle;resizable=0;points=[];autosize=1;strokeColor=none;fillColor=none;" vertex="1" parent="1">
          <mxGeometry x="485" y="220" width="30" height="30" as="geometry" />
        </mxCell>
        <mxCell id="mBNhG39dvA1WvkFb5wMn-121" value="}" style="text;html=1;align=center;verticalAlign=middle;resizable=0;points=[];autosize=1;strokeColor=none;fillColor=none;" vertex="1" parent="1">
          <mxGeometry x="535" y="350" width="30" height="30" as="geometry" />
        </mxCell>
      </root>
    </mxGraphModel>
  </diagram>
</mxfile>
